# xmcd
#
# Track frame offsets: 
#        150
#        29961
#        60524
#        82774
#        103249
#        128849
#        149211
#        185699
#        213974
#        233624
#        257699
#        283549
#
# Disc length: 4107 seconds
#
# Revision: 10
# Processed by: cddbd v1.5.2PL0 Copyright (c) Steve Scherf et al.
# Submitted via: ExactAudioCopy v1.3
#
DISCID=b310090c
DTITLE=Arthur Grumiaux (vln), Clara Haskil (pno) - Beethoven - Violin 
DTITLE=Sonatas I
DYEAR=1956
DGENRE=Chamber Music
TTITLE0=01. Violin Sonata in D major Op. 12 No. 1 - 1. Allegro con bri
TTITLE0=o
TTITLE1=02. Violin Sonata in D major Op. 12 No. 1 - 2. Tema con variaz
TTITLE1=ioni (Andante con moto)
TTITLE2=03. Violin Sonata in D major Op. 12 No. 1 - 3. Rondo, allegro
TTITLE3=04. Violin Sonata in A major Op. 12 No. 2 - 1. Allegro vivace
TTITLE4=05. Violin Sonata in A major Op. 12 No. 2 - 2. Andante piu tos
TTITLE4=to allegretto
TTITLE5=06. Violin Sonata in A major Op. 12 No. 2 - 3. Allegretto piac
TTITLE5=evole
TTITLE6=07. Violin Sonata in E flat major Op. 12 No. 3 - 1. Allegro co
TTITLE6=n spirito
TTITLE7=08. Violin Sonata in E flat major Op. 12 No. 3 - 2. Adagio con
TTITLE7=molt'espressione
TTITLE8=09. Violin Sonata in E flat major Op. 12 No. 3 - 3. Rondo, all
TTITLE8=egro molto
TTITLE9=10. Violin Sonata in A minor Op .23 - 1. Presto
TTITLE10=11. Violin Sonata in A minor Op. 23 - 2. Andante scherzoso, p
TTITLE10=iu allegretto
TTITLE11=12. Violin Sonata in A minor Op. 23 - 3. Allegro molto
EXTD=YEAR: 1956
EXTT0=
EXTT1=
EXTT2=
EXTT3=
EXTT4=
EXTT5=
EXTT6=
EXTT7=
EXTT8=
EXTT9=
EXTT10=
EXTT11=
PLAYORDER=
